<svg width="286" height="111" viewBox="0 0 286 111" fill="none" xmlns="http://www.w3.org/2000/svg">
<g clip-path="url(#clip0_29_706)">
<circle cx="2" cy="8" r="8" fill="#43A9A3"/>
<circle cx="31" cy="8" r="8" fill="#43A9A3"/>
<circle cx="60" cy="8" r="8" fill="#43A9A3"/>
<circle cx="89" cy="8" r="8" fill="#43A9A3"/>
<circle cx="118" cy="8" r="8" fill="#43A9A3"/>
<circle cx="147" cy="8" r="8" fill="#43A9A3"/>
<circle cx="176" cy="8" r="8" fill="#43A9A3"/>
<circle cx="205" cy="8" r="8" fill="#43A9A3"/>
<circle cx="234" cy="8" r="8" fill="#43A9A3"/>
<circle cx="263" cy="8" r="8" fill="#43A9A3"/>
<circle cx="2" cy="37" r="8" fill="#43A9A3"/>
<circle cx="31" cy="37" r="8" fill="#43A9A3"/>
<circle cx="60" cy="37" r="8" fill="#43A9A3"/>
<circle cx="89" cy="37" r="8" fill="#43A9A3"/>
<circle cx="118" cy="37" r="8" fill="#43A9A3"/>
<circle cx="147" cy="37" r="8" fill="#43A9A3"/>
<circle cx="176" cy="37" r="8" fill="#43A9A3"/>
<circle cx="205" cy="37" r="8" fill="#43A9A3"/>
<circle cx="234" cy="37" r="8" fill="#43A9A3"/>
<circle cx="263" cy="37" r="8" fill="#43A9A3"/>
<circle cx="2" cy="66" r="8" fill="#43A9A3"/>
<circle cx="31" cy="66" r="8" fill="#43A9A3"/>
<circle cx="60" cy="66" r="8" fill="#43A9A3"/>
<circle cx="89" cy="66" r="8" fill="#43A9A3"/>
<circle cx="118" cy="66" r="8" fill="#43A9A3"/>
<circle cx="147" cy="66" r="8" fill="#43A9A3"/>
<circle cx="176" cy="66" r="8" fill="#43A9A3"/>
<circle cx="205" cy="66" r="8" fill="#43A9A3"/>
<circle cx="234" cy="66" r="8" fill="#43A9A3"/>
<circle cx="263" cy="66" r="8" fill="#43A9A3"/>
<circle cx="2" cy="95" r="8" fill="#43A9A3"/>
<circle cx="31" cy="95" r="8" fill="#43A9A3"/>
<circle cx="60" cy="95" r="8" fill="#43A9A3"/>
<circle cx="89" cy="95" r="8" fill="#43A9A3"/>
<circle cx="118" cy="95" r="8" fill="#43A9A3"/>
<circle cx="147" cy="95" r="8" fill="#43A9A3"/>
<circle cx="176" cy="95" r="8" fill="#43A9A3"/>
<circle cx="205" cy="95" r="8" fill="#43A9A3"/>
<circle cx="234" cy="95" r="8" fill="#43A9A3"/>
<circle cx="263" cy="95" r="8" fill="#43A9A3"/>
</g>
<defs>
<clipPath id="clip0_29_706">
<rect width="292" height="111" fill="white" transform="translate(-6)"/>
</clipPath>
</defs>
</svg>
